<svg width="42" height="48"  viewBox="0 0 42 48" fill="none" xmlns="http://www.w3.org/2000/svg">
<path d="M0.741882 40.2892V36.9781C0.803288 35.7718 1.19328 34.6052 1.8697 33.6045C2.54612 32.6038 3.48322 31.807 4.57969 31.3004C15.1178 27.0674 26.8834 27.0674 37.4216 31.3004C38.518 31.807 39.4551 32.6038 40.1315 33.6045C40.808 34.6052 41.198 35.7718 41.2594 36.9781V40.2892C41.2589 41.1767 41.0836 42.0555 40.7434 42.8752C40.4031 43.6949 39.9047 44.4395 39.2765 45.0664C38.6483 45.6934 37.9028 46.1904 37.0824 46.529C36.262 46.8676 35.383 47.0413 34.4955 47.04H7.50577C6.61826 47.0413 5.73921 46.8676 4.91885 46.529C4.09849 46.1904 3.35291 45.6934 2.72474 45.0664C2.09657 44.4395 1.59812 43.6949 1.25789 42.8752C0.917657 42.0555 0.742314 41.1767 0.741882 40.2892ZM21.0006 0.959961C18.7741 0.95931 16.5974 1.61895 14.7458 2.85545C12.8943 4.09196 11.451 5.84979 10.5985 7.90662C9.74596 9.96345 9.52257 12.2269 9.95654 14.4107C10.3905 16.5945 11.4623 18.6006 13.0365 20.1752C14.6106 21.7498 16.6164 22.8222 18.8001 23.2568C20.9837 23.6914 23.2472 23.4687 25.3043 22.6168C27.3614 21.7649 29.1196 20.3221 30.3567 18.4709C31.5937 16.6196 32.254 14.4431 32.254 12.2166C32.2544 10.7386 31.9637 9.27485 31.3983 7.90915C30.833 6.54344 30.0042 5.30249 28.9591 4.25717C27.9141 3.21184 26.6734 2.38263 25.3079 1.81689C23.9423 1.25115 22.4787 0.959961 21.0006 0.959961Z" fill="white"/>
</svg>
